<?xml version="1.0" encoding="UTF-8" standalone="no"?>
<!DOCTYPE svg PUBLIC "-//W3C//DTD SVG 1.1//EN" "http://www.w3.org/Graphics/SVG/1.1/DTD/svg11.dtd">
<svg version="1.1" xmlns="http://www.w3.org/2000/svg" xmlns:xlink="http://www.w3.org/1999/xlink" preserveAspectRatio="xMidYMid meet" viewBox="184.90024589935084 938.9288327077354 76.73758566551291 85.01999999999998" width="72.74" height="81.02"><defs><path d="M258.15 947.12C257.67 946.01 257.03 944.98 256.25 944.06C253.94 941.44 250.61 939.94 247.12 939.93C243.85 939.93 217.69 939.93 214.42 939.93C210.07 939.93 206.06 942.25 203.88 946.01C202.24 948.84 189.16 971.5 187.53 974.33C185.36 978.09 185.36 982.73 187.53 986.49C189.16 989.32 202.24 1011.98 203.88 1014.81C206.04 1018.59 210.06 1020.93 214.42 1020.95C216.03 1020.95 228.93 1020.95 230.54 1020.95C232.9 1020.95 235.09 1019.69 236.28 1017.64C237.64 1015.29 244.45 1003.57 256.71 982.46L252.82 980.2C240.56 1001.31 233.75 1013.04 232.39 1015.39C232.01 1016.05 231.3 1016.45 230.54 1016.45C228.93 1016.45 216.03 1016.45 214.42 1016.45C211.68 1016.45 209.14 1014.99 207.77 1012.62C206.13 1009.78 193.05 987.09 191.42 984.25C190.06 981.87 190.06 978.95 191.42 976.58C193.05 973.75 206.13 951.09 207.77 948.26C209.14 945.88 211.67 944.42 214.42 944.42C217.69 944.42 243.85 944.42 247.12 944.42C249.86 944.42 252.39 945.89 253.76 948.26C254.08 948.26 255.71 948.26 258.64 948.26C258.38 947.65 258.21 947.27 258.15 947.12Z" id="cQFnxLe4r"></path></defs><g><g><use xlink:href="#cQFnxLe4r" opacity="1" fill="#231f20" fill-opacity="1"></use><g><use xlink:href="#cQFnxLe4r" opacity="1" fill-opacity="0" stroke="#000000" stroke-width="1" stroke-opacity="0"></use></g></g></g></svg>